<svg width="37" height="37" viewBox="0 0 37 37" fill="none" xmlns="http://www.w3.org/2000/svg">
<path d="M32.375 6.16667H27.5958C27.238 4.42676 26.2913 2.86341 24.9152 1.74011C23.5392 0.616805 21.818 0.00224239 20.0416 0L16.9583 0C15.182 0.00224239 13.4608 0.616805 12.0847 1.74011C10.7087 2.86341 9.76196 4.42676 9.40415 6.16667H4.62498C4.2161 6.16667 3.82398 6.32909 3.53486 6.61821C3.24574 6.90733 3.08331 7.29946 3.08331 7.70833C3.08331 8.11721 3.24574 8.50934 3.53486 8.79846C3.82398 9.08757 4.2161 9.25 4.62498 9.25H6.16665V29.2917C6.16909 31.3353 6.98201 33.2945 8.42707 34.7396C9.87213 36.1846 11.8314 36.9976 13.875 37H23.125C25.1686 36.9976 27.1278 36.1846 28.5729 34.7396C30.018 33.2945 30.8309 31.3353 30.8333 29.2917V9.25H32.375C32.7839 9.25 33.176 9.08757 33.4651 8.79846C33.7542 8.50934 33.9166 8.11721 33.9166 7.70833C33.9166 7.29946 33.7542 6.90733 33.4651 6.61821C33.176 6.32909 32.7839 6.16667 32.375 6.16667ZM16.9583 3.08333H20.0416C20.9979 3.0845 21.9304 3.38145 22.7112 3.93348C23.4921 4.4855 24.083 5.26555 24.403 6.16667H12.5969C12.917 5.26555 13.5079 4.4855 14.2887 3.93348C15.0696 3.38145 16.0021 3.0845 16.9583 3.08333ZM27.75 29.2917C27.75 30.5183 27.2627 31.6947 26.3953 32.562C25.528 33.4294 24.3516 33.9167 23.125 33.9167H13.875C12.6484 33.9167 11.472 33.4294 10.6046 32.562C9.73726 31.6947 9.24998 30.5183 9.24998 29.2917V9.25H27.75V29.2917Z" fill="#8E2C2C"/>
<path d="M15.4167 27.75C15.8255 27.75 16.2177 27.5876 16.5068 27.2984C16.7959 27.0093 16.9583 26.6172 16.9583 26.2083V16.9583C16.9583 16.5494 16.7959 16.1573 16.5068 15.8682C16.2177 15.5791 15.8255 15.4167 15.4167 15.4167C15.0078 15.4167 14.6157 15.5791 14.3265 15.8682C14.0374 16.1573 13.875 16.5494 13.875 16.9583V26.2083C13.875 26.6172 14.0374 27.0093 14.3265 27.2984C14.6157 27.5876 15.0078 27.75 15.4167 27.75Z" fill="#8E2C2C"/>
<path d="M21.5834 27.75C21.9922 27.75 22.3844 27.5876 22.6735 27.2984C22.9626 27.0093 23.125 26.6172 23.125 26.2083V16.9583C23.125 16.5494 22.9626 16.1573 22.6735 15.8682C22.3844 15.5791 21.9922 15.4167 21.5834 15.4167C21.1745 15.4167 20.7823 15.5791 20.4932 15.8682C20.2041 16.1573 20.0417 16.5494 20.0417 16.9583V26.2083C20.0417 26.6172 20.2041 27.0093 20.4932 27.2984C20.7823 27.5876 21.1745 27.75 21.5834 27.75Z" fill="#8E2C2C"/>
</svg>
