<svg width="26" height="26" viewBox="0 0 26 26" fill="none" xmlns="http://www.w3.org/2000/svg">
<path d="M25.6826 0.317399C25.4794 0.114305 25.2039 0.000213623 24.9167 0.000213623C24.6294 0.000213623 24.3539 0.114305 24.1508 0.317399L13 11.4682L1.84926 0.317399C1.64611 0.114305 1.37061 0.000213623 1.08335 0.000213623C0.796085 0.000213623 0.520584 0.114305 0.317429 0.317399C0.114336 0.520554 0.000244141 0.796054 0.000244141 1.08332C0.000244141 1.37058 0.114336 1.64608 0.317429 1.84923L11.4682 13L0.317429 24.1507C0.114336 24.3539 0.000244141 24.6294 0.000244141 24.9166C0.000244141 25.2039 0.114336 25.4794 0.317429 25.6826C0.520584 25.8857 0.796085 25.9998 1.08335 25.9998C1.37061 25.9998 1.64611 25.8857 1.84926 25.6826L13 14.5318L24.1508 25.6826C24.3539 25.8857 24.6294 25.9998 24.9167 25.9998C25.2039 25.9998 25.4794 25.8857 25.6826 25.6826C25.8857 25.4794 25.9998 25.2039 25.9998 24.9166C25.9998 24.6294 25.8857 24.3539 25.6826 24.1507L14.5318 13L25.6826 1.84923C25.8857 1.64608 25.9998 1.37058 25.9998 1.08332C25.9998 0.796054 25.8857 0.520554 25.6826 0.317399Z" fill="white"/>
</svg>
