<svg width="30" height="30" viewBox="0 0 30 30" fill="none" xmlns="http://www.w3.org/2000/svg">
<g clip-path="url(#clip0)">
<path d="M23.32 1.1625L8.08003 16.4025C7.49795 16.9814 7.0365 17.6701 6.72238 18.4286C6.40826 19.187 6.24771 20.0003 6.25002 20.8212V22.5C6.25002 22.8315 6.38172 23.1495 6.61614 23.3839C6.85056 23.6183 7.1685 23.75 7.50002 23.75H9.17877C9.99973 23.7523 10.813 23.5918 11.5715 23.2776C12.33 22.9635 13.0186 22.5021 13.5975 21.92L28.8375 6.68C29.568 5.94771 29.9783 4.95559 29.9783 3.92125C29.9783 2.8869 29.568 1.89479 28.8375 1.1625C28.0946 0.452366 27.1065 0.0560608 26.0788 0.0560608C25.0511 0.0560608 24.0629 0.452366 23.32 1.1625ZM27.07 4.9125L11.83 20.1525C11.1252 20.853 10.1725 21.2474 9.17877 21.25H8.75003V20.8212C8.75263 19.8275 9.14698 18.8748 9.84752 18.17L25.0875 2.93C25.3545 2.67494 25.7095 2.53261 26.0788 2.53261C26.448 2.53261 26.803 2.67494 27.07 2.93C27.3325 3.19314 27.4798 3.54961 27.4798 3.92125C27.4798 4.29288 27.3325 4.64935 27.07 4.9125Z" fill="#555555"/>
<path d="M28.75 11.2238C28.4185 11.2238 28.1005 11.3554 27.8661 11.5899C27.6317 11.8243 27.5 12.1422 27.5 12.4738V18.75H22.5C21.5054 18.75 20.5516 19.1451 19.8483 19.8483C19.1451 20.5516 18.75 21.5054 18.75 22.5V27.5H6.25C5.25544 27.5 4.30161 27.1049 3.59835 26.4017C2.89509 25.6984 2.5 24.7446 2.5 23.75V6.25C2.5 5.25544 2.89509 4.30161 3.59835 3.59835C4.30161 2.89509 5.25544 2.5 6.25 2.5H17.5525C17.884 2.5 18.202 2.3683 18.4364 2.13388C18.6708 1.89946 18.8025 1.58152 18.8025 1.25C18.8025 0.918479 18.6708 0.600537 18.4364 0.366117C18.202 0.131696 17.884 0 17.5525 0L6.25 0C4.59301 0.00198482 3.00445 0.661102 1.83277 1.83277C0.661102 3.00445 0.00198482 4.59301 0 6.25L0 23.75C0.00198482 25.407 0.661102 26.9956 1.83277 28.1672C3.00445 29.3389 4.59301 29.998 6.25 30H20.4287C21.2499 30.0023 22.0633 29.8418 22.822 29.5277C23.5807 29.2136 24.2696 28.7521 24.8487 28.17L28.1687 24.8475C28.7509 24.2686 29.2125 23.58 29.5269 22.8215C29.8412 22.063 30.002 21.2498 30 20.4288V12.4738C30 12.1422 29.8683 11.8243 29.6339 11.5899C29.3995 11.3554 29.0815 11.2238 28.75 11.2238ZM23.0812 26.4025C22.5788 26.9038 21.9433 27.2508 21.25 27.4025V22.5C21.25 22.1685 21.3817 21.8505 21.6161 21.6161C21.8505 21.3817 22.1685 21.25 22.5 21.25H27.4062C27.2516 21.9419 26.905 22.5762 26.4062 23.08L23.0812 26.4025Z" fill="#555555"/>
</g>
<defs>
<clipPath id="clip0">
<rect width="30" height="30" fill="white"/>
</clipPath>
</defs>
</svg>
